<svg xmlns="http://www.w3.org/2000/svg" viewBox="0 0 64 64">
  <rect width="64" height="64" rx="16" fill="#237227"/>
  <circle cx="32" cy="32" r="25" fill="#fffaf0"/>
  <path d="M36.8 13.4c-4.8 1.4-8.7 4.6-11.2 9.3 3.5.8 7.1.2 10.1-1.8 2.6-1.8 4.2-4.4 4.8-7.7-1.3-.2-2.5-.1-3.7.2Z" fill="#519a66"/>
  <path d="M33.1 20.5c-.8 1.8-1 3.9-.5 6.1" stroke="#237227" stroke-width="2.4" stroke-linecap="round"/>
  <path d="M38.4 24.1c8.1 4.8 9 17.1 2.6 23.2-5.6 5.4-15.2 4-20-2.9-5.8-8.4-1.1-20.1 8.8-22.4 2.9-.7 5.9.1 8.6 2.1Z" fill="#ffaa00"/>
  <path d="M39.7 27.4c4.6 4.3 4.7 12.3.2 16.6-3.5 3.4-9.4 3.1-13.2-.7 5.5.9 11.2-4.4 13-15.9Z" fill="#ffd786" opacity=".85"/>
  <path d="M22.7 37.4c-.4-5 2.4-9.5 7.1-11.3" stroke="#ff8c00" stroke-width="2.4" stroke-linecap="round" opacity=".55"/>
  <path d="M18.7 48.2c5.5 5.8 14.9 8 22.1 3.8" stroke="#237227" stroke-width="3" stroke-linecap="round" opacity=".2"/>
</svg>
